<svg width="210" height="180" viewBox="0 0 210 180" fill="none" xmlns="http://www.w3.org/2000/svg">
<path d="M17.5 15.5L12 10L12 21L17.5 15.5Z" fill="#474747"/>
<path d="M44.75 18.25L50.25 12.75L39.25 12.75L44.75 18.25Z" fill="#474747"/>
<path d="M65 9L70 14L75 9" stroke="#8B93A6" stroke-linecap="round" stroke-linejoin="round"/>
<path d="M98 15L103 10L98 5" stroke="#8B93A6" stroke-linecap="round" stroke-linejoin="round"/>
<path d="M125.242 12.676C126.826 14.5696 128.733 16.0606 130.91 17.1155C131.738 17.5082 132.847 17.9741 134.081 18.054C134.158 18.0573 134.231 18.0607 134.308 18.0607C135.136 18.0607 135.802 17.7744 136.344 17.1854C136.348 17.1821 136.354 17.1754 136.358 17.1688C136.551 16.9358 136.77 16.7261 137 16.5032C137.156 16.3534 137.316 16.197 137.469 16.0373C138.178 15.2985 138.178 14.36 137.463 13.6445L135.462 11.6444C135.123 11.2916 134.717 11.1053 134.291 11.1053C133.865 11.1053 133.456 11.2916 133.106 11.6411L131.915 12.8325C131.805 12.7692 131.692 12.7126 131.585 12.6594C131.452 12.5928 131.329 12.5296 131.219 12.4597C130.134 11.7708 129.149 10.8723 128.208 9.7175C127.732 9.11514 127.412 8.60929 127.189 8.09346C127.502 7.81059 127.795 7.5144 128.078 7.22487C128.178 7.1217 128.281 7.01854 128.384 6.91537C128.743 6.55595 128.936 6.13996 128.936 5.71731C128.936 5.29466 128.747 4.87867 128.384 4.51925L127.392 3.52753C127.276 3.41105 127.166 3.2979 127.053 3.18142C126.833 2.95512 126.603 2.72216 126.377 2.5125C126.034 2.17638 125.632 2 125.206 2C124.783 2 124.377 2.17638 124.021 2.51583L122.776 3.76048C122.324 4.21308 122.067 4.76219 122.014 5.39783C121.951 6.19321 122.097 7.03851 122.477 8.06018C123.059 9.64096 123.938 11.1086 125.242 12.676ZM122.826 5.46772C122.866 5.0251 123.036 4.6557 123.355 4.33622L124.593 3.09822C124.786 2.91186 124.999 2.81535 125.206 2.81535C125.409 2.81535 125.615 2.91186 125.805 3.10488C126.028 3.31121 126.237 3.52753 126.464 3.75715C126.577 3.87363 126.693 3.99011 126.81 4.10992L127.802 5.10164C128.008 5.30797 128.114 5.51764 128.114 5.72397C128.114 5.9303 128.008 6.13996 127.802 6.34629C127.698 6.44946 127.595 6.55595 127.492 6.65912C127.183 6.97195 126.893 7.26813 126.574 7.55101C126.567 7.55766 126.564 7.56099 126.557 7.56765C126.281 7.84387 126.324 8.10677 126.39 8.30645C126.394 8.31644 126.397 8.32309 126.4 8.33308C126.657 8.94874 127.013 9.53446 127.569 10.2333C128.567 11.4647 129.619 12.4198 130.777 13.1553C130.92 13.2484 131.073 13.3217 131.216 13.3949C131.349 13.4614 131.472 13.5247 131.582 13.5946C131.595 13.6012 131.605 13.6079 131.619 13.6145C131.728 13.6711 131.835 13.6977 131.941 13.6977C132.208 13.6977 132.381 13.528 132.437 13.4714L133.682 12.2268C133.875 12.0337 134.085 11.9306 134.291 11.9306C134.544 11.9306 134.75 12.087 134.88 12.2268L136.887 14.2302C137.286 14.6295 137.283 15.0622 136.877 15.4848C136.737 15.6346 136.591 15.7777 136.434 15.9274C136.201 16.1537 135.958 16.3867 135.739 16.6496C135.356 17.0623 134.9 17.2553 134.311 17.2553C134.254 17.2553 134.194 17.252 134.138 17.2486C133.046 17.1787 132.031 16.7528 131.269 16.39C129.199 15.3883 127.382 13.9673 125.875 12.1635C124.633 10.6693 123.798 9.27821 123.246 7.78729C122.903 6.87211 122.773 6.13663 122.826 5.46772Z" fill="#474747" stroke="#474747" stroke-width="1.2"/>
<path d="M154.293 14.2929C153.902 14.6834 153.902 15.3166 154.293 15.7071C154.683 16.0976 155.317 16.0976 155.707 15.7071L154.293 14.2929ZM165.707 5.70711C166.098 5.31658 166.098 4.68342 165.707 4.29289C165.317 3.90237 164.683 3.90237 164.293 4.29289L165.707 5.70711ZM155.707 15.7071L165.707 5.70711L164.293 4.29289L154.293 14.2929L155.707 15.7071Z" fill="#474747"/>
<path d="M155.707 4.29289C155.317 3.90237 154.683 3.90237 154.293 4.29289C153.902 4.68342 153.902 5.31658 154.293 5.70711L155.707 4.29289ZM164.293 15.7071C164.683 16.0976 165.317 16.0976 165.707 15.7071C166.098 15.3166 166.098 14.6834 165.707 14.2929L164.293 15.7071ZM154.293 5.70711L164.293 15.7071L165.707 14.2929L155.707 4.29289L154.293 5.70711Z" fill="#474747"/>
<path fill-rule="evenodd" clip-rule="evenodd" d="M192.173 8.05135C192.173 9.72359 190.804 11.1027 189.086 11.1027C187.369 11.1027 186 9.72359 186 8.05135C186 6.37911 187.369 5 189.086 5C190.804 5 192.173 6.37911 192.173 8.05135ZM191.284 12.608C190.619 12.9251 189.874 13.1027 189.086 13.1027C186.277 13.1027 184 10.8411 184 8.05135C184 5.26157 186.277 3 189.086 3C191.895 3 194.173 5.26157 194.173 8.05135C194.173 9.33096 193.694 10.4994 192.904 11.3895C192.954 11.436 193.001 11.4882 193.042 11.546L195.804 15.378C196.137 15.8392 196.031 16.4801 195.567 16.8095C195.104 17.1388 194.459 17.032 194.126 16.5708L191.365 12.7388C191.334 12.6966 191.307 12.6529 191.284 12.608Z" fill="#474747"/>
<path fill-rule="evenodd" clip-rule="evenodd" d="M5 33H13.1346L16 35.8976V47H5V33Z" stroke="#4B66E6" stroke-linecap="round" stroke-linejoin="round"/>
<path d="M13 33V36H16" stroke="#4B66E6" stroke-linecap="round" stroke-linejoin="round"/>
<path d="M55.8602 44.5721C55.6636 44.3032 50.9808 37.989 44.9999 37.989C39.019 37.989 34.3359 44.3032 34.1396 44.5718C33.9535 44.8269 33.9535 45.1728 34.1396 45.4279C34.3359 45.6968 39.019 52.011 44.9999 52.011C50.9808 52.011 55.6636 45.6967 55.8602 45.4281C56.0466 45.1731 56.0466 44.8269 55.8602 44.5721ZM44.9999 50.5604C40.5943 50.5604 36.7787 46.3696 35.6491 44.9995C36.7772 43.6282 40.5849 39.4396 44.9999 39.4396C49.4052 39.4396 53.2206 43.6297 54.3506 45.0005C53.2226 46.3717 49.4149 50.5604 44.9999 50.5604Z" fill="#4E4D5B"/>
<path d="M44.9999 40.6484C42.6004 40.6484 40.6482 42.6006 40.6482 45.0001C40.6482 47.3996 42.6004 49.3518 44.9999 49.3518C47.3993 49.3518 49.3515 47.3996 49.3515 45.0001C49.3515 42.6006 47.3993 40.6484 44.9999 40.6484ZM44.9999 47.9012C43.4001 47.9012 42.0988 46.5998 42.0988 45.0001C42.0988 43.4004 43.4002 42.099 44.9999 42.099C46.5995 42.099 47.9009 43.4004 47.9009 45.0001C47.9009 46.5998 46.5996 47.9012 44.9999 47.9012Z" fill="#4E4D5B"/>
<path d="M70.1731 37.159L72.4511 39.437L67.5011 44.383L65.4741 44.607C65.4104 44.6143 65.3459 44.6071 65.2853 44.5861C65.2247 44.565 65.1697 44.5306 65.1242 44.4853C65.0788 44.4401 65.0441 44.3852 65.0228 44.3247C65.0015 44.2642 64.9941 44.1997 65.0011 44.136L65.2291 42.1L70.1731 37.159ZM73.8601 36.82L72.7901 35.751C72.7108 35.6717 72.6166 35.6087 72.513 35.5658C72.4094 35.5228 72.2983 35.5007 72.1861 35.5007C72.0739 35.5007 71.9628 35.5228 71.8592 35.5658C71.7556 35.6087 71.6614 35.6717 71.5821 35.751L70.5761 36.757L72.8541 39.035L73.8601 38.028C73.9394 37.9487 74.0024 37.8545 74.0453 37.7509C74.0883 37.6473 74.1104 37.5362 74.1104 37.424C74.1104 37.3118 74.0883 37.2007 74.0453 37.0971C74.0024 36.9935 73.9394 36.8993 73.8601 36.82Z" fill="white"/>
<g filter="url(#filter0_d)">
<path d="M94 38.375L97.7841 41.75L104.688 35" stroke="white" stroke-width="2"/>
</g>
<path d="M132.641 38.6157H134.369V40.3438H132.641V38.6157Z" fill="#8B93A6"/>
<rect x="129.098" y="38.6157" width="1.90092" height="1.72811" fill="#8B93A6"/>
<rect x="125.728" y="38.6157" width="1.72811" height="1.72811" fill="#8B93A6"/>
<path d="M132.641 42.0725H134.369V43.8006H132.641V42.0725Z" fill="#8B93A6"/>
<rect x="129.098" y="42.0725" width="1.90092" height="1.72811" fill="#8B93A6"/>
<rect x="125.728" y="42.0725" width="1.72811" height="1.72811" fill="#8B93A6"/>
<mask id="path-21-outside-1" maskUnits="userSpaceOnUse" x="123" y="34.1609" width="15" height="14" fill="black">
<rect fill="white" x="123" y="34.1609" width="15" height="14"/>
<path d="M124 46.3936V35.1609H132.468H136.097V37.9691V46.3936H124Z"/>
</mask>
<path d="M124 35.1609V34.1609C123.448 34.1609 123 34.6086 123 35.1609H124ZM124 46.3936H123C123 46.9459 123.448 47.3936 124 47.3936V46.3936ZM136.097 46.3936V47.3936C136.649 47.3936 137.097 46.9459 137.097 46.3936H136.097ZM136.097 35.1609H137.097C137.097 34.6086 136.649 34.1609 136.097 34.1609V35.1609ZM123 35.1609V46.3936H125V35.1609H123ZM124 47.3936H136.097V45.3936H124V47.3936ZM132.468 34.1609H124V36.1609H132.468V34.1609ZM137.097 46.3936V37.9691H135.097V46.3936H137.097ZM137.097 37.9691V35.1609H135.097V37.9691H137.097ZM136.097 34.1609H132.468V36.1609H136.097V34.1609Z" fill="#8B93A6" mask="url(#path-21-outside-1)"/>
<path d="M134.368 34.2961V33" stroke="#8B93A6" stroke-linecap="round"/>
<path d="M125.728 34.2961V33" stroke="#8B93A6" stroke-linecap="round"/>
<defs>
<filter id="filter0_d" x="78.3344" y="24.2849" width="42.0522" height="38.8329" filterUnits="userSpaceOnUse" color-interpolation-filters="sRGB">
<feFlood flood-opacity="0" result="BackgroundImageFix"/>
<feColorMatrix in="SourceAlpha" type="matrix" values="0 0 0 0 0 0 0 0 0 0 0 0 0 0 0 0 0 0 127 0"/>
<feOffset dy="5"/>
<feGaussianBlur stdDeviation="7.5"/>
<feColorMatrix type="matrix" values="0 0 0 0 0.113725 0 0 0 0 0.180392 0 0 0 0 0.341176 0 0 0 0.08 0"/>
<feBlend mode="normal" in2="BackgroundImageFix" result="effect1_dropShadow"/>
<feBlend mode="normal" in="SourceGraphic" in2="effect1_dropShadow" result="shape"/>
</filter>
</defs>
</svg>
